Coordinates
version=1
nRows=11
nColumns=36
inDegrees=yes

Units are S.I. units (second, meters, Newtons, ...)
If the header above contains a line with 'inDegrees', this indicates whether rotational values are in degrees (yes) or radians (no).

endheader
time	pelvis_tilt	pelvis_list	pelvis_rotation	pelvis_tx	pelvis_ty	pelvis_tz	hip_flexion_r	hip_adduction_r	hip_rotation_r	knee_angle_r	knee_angle_r_beta	ankle_angle_r	subtalar_angle_r	mtp_angle_r	hip_flexion_l	hip_adduction_l	hip_rotation_l	knee_angle_l	knee_angle_l_beta	ankle_angle_l	subtalar_angle_l	mtp_angle_l	lumbar_extension	lumbar_bending	lumbar_rotation	arm_flex_r	arm_add_r	arm_rot_r	elbow_flex_r	pro_sup_r	arm_flex_l	arm_add_l	arm_rot_l	elbow_flex_l	pro_sup_l
      4.43333330	     -5.36992947	     -1.56335218	     -1.66604030	      0.54112592	      0.78487819	      0.23047907	     28.86083784	     11.34213268	     -4.88945576	     59.54192739	      1.03920268	     42.61483424	     -8.04174180	     -7.49999987	     59.62265488	     -9.52572978	      4.90633820	     30.16944634	      0.52655617	     -0.77911010	    -19.41868750	     -7.49999987	     -8.72852199	      9.35794816	     -4.85766304	     31.91694126	     -8.54579527	     62.40592430	    120.07484406	     99.18840437	     29.38197300	     -4.24131674	     66.33838188	    125.80468509	    108.40781837
      4.45000000	     -5.80847879	     -1.89459533	     -1.84328578	      0.54106924	      0.78125903	      0.23033028	     29.78001005	     11.69786805	     -4.99099805	     60.58202794	      1.05735586	     43.12700945	     -7.78518602	     -7.49999987	     60.07777843	    -10.04377967	      5.01483942	     30.30890093	      0.52899011	     -0.75996050	    -19.77536877	     -7.49999987	     -8.34165115	      9.69767121	     -4.99478246	     31.93669469	     -8.56078441	     62.69126088	    120.48821291	     98.69964580	     29.26286687	     -4.27052717	     66.20996004	    125.91882978	    108.35209998
      4.46666670	     -5.95754436	     -2.07513470	     -1.88249313	      0.54781116	      0.77879347	      0.23358897	     30.48022206	     11.88124089	     -5.06678165	     61.69445156	      1.07677131	     43.56562161	     -7.84922376	     -7.49999987	     59.85881866	    -10.41500017	      4.81900663	     30.43994878	      0.53127733	     -0.71444511	    -19.76504542	     -7.49999987	     -8.04595484	      9.60927250	     -5.14777062	     31.50485183	     -8.51259130	     62.76697046	    120.75448959	     98.79162599	     29.19866070	     -4.49927805	     66.30541782	    125.81399831	    108.31957068
      4.48333330	     -6.50878933	     -2.22577063	     -1.89362240	      0.54798684	      0.77205119	      0.23337339	     31.51762877	     11.96716763	     -5.37526048	     62.81413845	      1.09631353	     44.25910278	     -7.43011673	     -7.49999987	     60.50424374	    -10.60881217	      5.22662955	     31.06927926	      0.54226122	     -1.03109230	    -20.37623487	     -7.49999987	     -7.06878030	      9.54168639	     -5.18770701	     30.85205493	     -8.59408615	     62.81725575	    121.26777066	     95.48392243	     29.23008258	     -4.24106259	     66.26451880	    125.70427967	    104.01544342
      4.50000000	     -6.84046861	     -2.19870981	     -1.77812656	      0.54837772	      0.77131706	      0.23306643	     32.12853340	     11.94314985	     -5.45585612	     63.42696215	      1.10700932	     44.45263470	     -7.60522064	     -7.49999987	     60.71421415	    -10.59815617	      5.41600050	     31.23080799	      0.54508043	     -0.61013646	    -19.97976813	     -7.49999987	     -6.80425321	      9.34653808	     -5.17684194	     30.33784562	     -8.67193787	     62.96656928	    121.36940611	     95.02904803	     29.25824942	     -4.13128022	     66.10718035	    125.82476909	    103.66590537
      4.51666670	     -7.40887210	     -2.56075182	     -1.87920144	      0.54219801	      0.76912766	      0.23529989	     33.36343932	     12.28807212	     -5.66773209	     64.07447148	      1.11831049	     44.32717409	     -7.53675680	     -7.49999987	     61.39419298	    -10.98474030	      5.99105373	     31.28752716	      0.54607036	     -0.44660199	    -19.26443518	     -7.49999987	     -6.57545396	      9.53099437	     -4.94763043	     30.45759222	     -8.98331363	     63.41275570	    121.45170704	     95.51229061	     29.87228675	     -4.12573578	     66.44585151	    126.05848258	    104.33127947
      4.53333330	     -7.72310752	     -2.89461734	     -1.98792322	      0.54285694	      0.76575708	      0.23505327	     34.33692700	     12.55676871	     -5.96555187	     64.67151925	      1.12873094	     44.34855298	     -7.27636843	     -7.49999987	     61.84548522	    -11.37082252	      6.29973362	     31.26295438	      0.54564149	     -0.39705113	    -18.48601197	     -7.49999987	     -6.55335343	      9.76164276	     -4.59481506	     30.52206750	     -9.02168573	     63.06297796	    121.19224862	     95.16232425	     30.35137415	     -4.06056540	     66.46446650	    126.21878711	    104.15578352
      4.55000000	     -8.38006036	     -2.91311352	     -1.97918461	      0.55075688	      0.76258758	      0.23229129	     35.32152499	     12.40191869	     -6.11209333	     65.24043696	      1.13866043	     44.53675705	     -7.10652266	     -7.49999987	     62.45627996	    -11.35884043	      6.29960586	     31.54746674	      0.55060717	      0.13699421	    -17.96174659	     -7.49999987	     -5.74214933	      9.69478371	     -4.43683444	     29.65733177	     -9.34003342	     62.35873836	    121.50928099	     98.41531169	     30.64142509	     -3.74622157	     66.86407901	    125.98775823	    108.10313502
      4.56666670	     -8.50587048	     -2.83921679	     -1.79079753	      0.55757303	      0.76353177	      0.23543658	     35.30342632	     12.22812568	     -6.19889687	     65.29574042	      1.13962566	     44.66787311	     -7.21986550	     -7.49999987	     62.17860112	    -11.21561001	      6.28366744	     31.77524359	      0.55458262	      0.45733157	    -18.07768154	     -7.49999987	     -5.65916844	      9.47185305	     -4.62470535	     28.77637472	     -9.58832080	     62.65519208	    121.33461715	     98.43596688	     30.30627826	     -3.95628111	     67.03760708	    125.98028497	    108.11103214
      4.58333330	     -8.94470655	     -2.70694021	     -1.56596861	      0.55058806	      0.75951369	      0.23148683	     36.32663696	     11.68343952	     -6.68703465	     66.08855177	      1.15346283	     44.67093291	     -7.02997448	     -7.49999987	     62.73773973	    -10.89700142	      6.22588598	     31.73172689	      0.55382311	      0.70978708	    -17.50730919	     -7.49999987	     -5.36560179	      9.25771969	     -4.79180243	     28.38849153	     -9.66056978	     62.60738535	    121.41047551	     98.47470024	     30.41243454	     -3.86579184	     67.29033916	    126.06518107	    108.13661055
      4.60000000	     -9.90693198	     -2.85769340	     -1.51367182	      0.55126596	      0.75535182	      0.23130182	     37.81207967	     11.51927524	     -7.20832213	     66.89004464	      1.16745152	     45.00058007	     -6.46222915	     -7.49999987	     64.03511822	    -10.94048132	      6.43750600	     31.90269372	      0.55680705	      1.16611270	    -16.89311553	     -7.49999987	     -4.30378537	      9.46124724	     -4.54035103	     28.02794794	     -9.97337829	     62.53635987	    121.87871681	     97.74383304	     30.42710635	     -3.96090234	     67.94114262	    126.12279727	    107.27079516
